<svg height="512pt" viewBox="-6 0 512 512" width="512pt" xmlns="http://www.w3.org/2000/svg"><path d="m348.390625 270.777344c2.957031 3.792968 7.375 5.777344 11.835937 5.777344 3.226563 0 6.476563-1.035157 9.214844-3.171876 25.820313-20.140624 40.632813-50.449218 40.632813-83.160156 0-58.125-47.289063-105.410156-105.410157-105.410156-58.125 0-105.410156 47.285156-105.410156 105.410156v26.535156c0 8.285157 6.71875 15 15 15 6.753906 0 12.460938-4.460937 14.34375-10.597656.425782-1.390625.65625-2.871094.65625-4.402344v-26.535156c0-41.582031 33.828125-75.410156 75.410156-75.410156 41.582032 0 75.410157 33.828125 75.410157 75.410156 0 1.214844-.039063 2.425782-.09375 3.632813h-26.269531c-29.75 0-55.058594 19.296875-64.117188 46.023437-2.308594 6.8125-3.582031 14.09375-3.582031 21.675782 0 37.328124 30.371093 67.695312 67.699219 67.695312 8.28125 0 15-6.714844 15-15 0-8.28125-6.71875-15-15-15-20.785157 0-37.699219-16.910156-37.699219-37.695312 0-4.519532.800781-8.855469 2.265625-12.871094 5.273437-14.46875 19.164062-24.828125 35.433594-24.828125h18.492187c-4.953125 9.941406-12.128906 18.785156-21.210937 25.871093-2.523438 1.96875-4.234376 4.585938-5.105469 7.429688-1.382813 4.519531-.625 9.613281 2.503906 13.621094zm0 0"/><path d="m304.664062 0c-107.203124 0-194.417968 87.214844-194.417968 194.417969 0 71.214843 39.019531 136.402343 100.6875 170.363281-6.382813 13.625-9.707032 28.5-9.707032 43.78125 0 57.035156 46.402344 103.4375 103.4375 103.4375 57.035157 0 103.4375-46.402344 103.4375-103.4375 0-8.28125-6.71875-15-15-15-8.285156 0-15 6.71875-15 15 0 40.496094-32.945312 73.4375-73.4375 73.4375-40.492187 0-73.4375-32.941406-73.4375-73.4375 0-14.949219 4.476563-29.34375 12.945313-41.621094 2.53125-3.671875 3.300781-8.285156 2.09375-12.578125-1.210937-4.296875-4.269531-7.832031-8.34375-9.644531-59.335937-26.390625-97.679687-85.386719-97.679687-150.300781.003906-90.660157 73.761718-164.417969 164.421874-164.417969 90.660157 0 164.417969 73.757812 164.417969 164.417969 0 8.285156 6.71875 15 15 15 8.285157 0 15-6.714844 15-15 0-107.203125-87.214843-194.417969-194.417969-194.417969zm0 0"/><path d="m154.511719 388.53125c-37.332031 0-67.703125-30.371094-67.703125-67.703125 0-8.285156-6.714844-15-15-15-8.28125 0-15 6.714844-15 15 0 53.871094 43.832031 97.703125 97.703125 97.703125 8.285156 0 15-6.71875 15-15 0-8.285156-6.714844-15-15-15zm0 0"/><path d="m146.289062 445.339844c-64.121093 0-116.289062-52.167969-116.289062-116.289063 0-8.285156-6.714844-15-15-15s-15 6.714844-15 15c0 80.664063 65.625 146.289063 146.289062 146.289063 8.28125 0 15-6.714844 15-15s-6.71875-15-15-15zm0 0"/></svg>